<svg xmlns="http://www.w3.org/2000/svg" xmlns:xlink="http://www.w3.org/1999/xlink"><symbol id="arrow-right" viewBox="0 0 512.002 512.002">
<g>
	<g>
		<path d="M388.425,241.951L151.609,5.79c-7.759-7.733-20.321-7.72-28.067,0.04c-7.74,7.759-7.72,20.328,0.04,28.067l222.72,222.105
			L123.574,478.106c-7.759,7.74-7.779,20.301-0.04,28.061c3.883,3.89,8.97,5.835,14.057,5.835c5.074,0,10.141-1.932,14.017-5.795
			l236.817-236.155c3.737-3.718,5.834-8.778,5.834-14.05S392.156,245.676,388.425,241.951z"/>
	</g>
</g>
<g>
</g>
<g>
</g>
<g>
</g>
<g>
</g>
<g>
</g>
<g>
</g>
<g>
</g>
<g>
</g>
<g>
</g>
<g>
</g>
<g>
</g>
<g>
</g>
<g>
</g>
<g>
</g>
<g>
</g>
</symbol><symbol id="bag" viewBox="0 0 279 279">
<path d="M222.333,66H179.5V39.67C179.5,17.521,161.812,0,139.663,0h-0.66C116.854,0,98.5,17.521,98.5,39.67V66H57.333
	c-4.142,0-7.833,3.358-7.833,7.5v198c0,4.142,3.691,7.5,7.833,7.5h165c4.142,0,7.167-3.358,7.167-7.5v-198
	C229.5,69.358,226.475,66,222.333,66z M113.5,39.67c0-13.879,11.624-24.67,25.503-24.67h0.66c13.879,0,24.837,10.791,24.837,24.67
	V66h-51V39.67z"/>
<g>
</g>
<g>
</g>
<g>
</g>
<g>
</g>
<g>
</g>
<g>
</g>
<g>
</g>
<g>
</g>
<g>
</g>
<g>
</g>
<g>
</g>
<g>
</g>
<g>
</g>
<g>
</g>
<g>
</g>
</symbol><symbol id="facebook" viewBox="0 0 310 310">
<g id="XMLID_834_">
	<path id="XMLID_835_" d="M81.703,165.106h33.981V305c0,2.762,2.238,5,5,5h57.616c2.762,0,5-2.238,5-5V165.765h39.064
		c2.54,0,4.677-1.906,4.967-4.429l5.933-51.502c0.163-1.417-0.286-2.836-1.234-3.899c-0.949-1.064-2.307-1.673-3.732-1.673h-44.996
		V71.978c0-9.732,5.24-14.667,15.576-14.667c1.473,0,29.42,0,29.42,0c2.762,0,5-2.239,5-5V5.037c0-2.762-2.238-5-5-5h-40.545
		C187.467,0.023,186.832,0,185.896,0c-7.035,0-31.488,1.381-50.804,19.151c-21.402,19.692-18.427,43.27-17.716,47.358v37.752H81.703
		c-2.762,0-5,2.238-5,5v50.844C76.703,162.867,78.941,165.106,81.703,165.106z"/>
</g>
<g>
</g>
<g>
</g>
<g>
</g>
<g>
</g>
<g>
</g>
<g>
</g>
<g>
</g>
<g>
</g>
<g>
</g>
<g>
</g>
<g>
</g>
<g>
</g>
<g>
</g>
<g>
</g>
<g>
</g>
</symbol><symbol id="instagram" viewBox="0 0 300 300">
<g id="XMLID_504_">
	<path id="XMLID_505_" d="M38.52,0.012h222.978C282.682,0.012,300,17.336,300,38.52v222.978c0,21.178-17.318,38.49-38.502,38.49
		H38.52c-21.184,0-38.52-17.313-38.52-38.49V38.52C0,17.336,17.336,0.012,38.52,0.012z M218.546,33.329
		c-7.438,0-13.505,6.091-13.505,13.525v32.314c0,7.437,6.067,13.514,13.505,13.514h33.903c7.426,0,13.506-6.077,13.506-13.514
		V46.854c0-7.434-6.08-13.525-13.506-13.525H218.546z M266.084,126.868h-26.396c2.503,8.175,3.86,16.796,3.86,25.759
		c0,49.882-41.766,90.34-93.266,90.34c-51.487,0-93.254-40.458-93.254-90.34c0-8.963,1.37-17.584,3.861-25.759H33.35v126.732
		c0,6.563,5.359,11.902,11.916,11.902h208.907c6.563,0,11.911-5.339,11.911-11.902V126.868z M150.283,90.978
		c-33.26,0-60.24,26.128-60.24,58.388c0,32.227,26.98,58.375,60.24,58.375c33.278,0,60.259-26.148,60.259-58.375
		C210.542,117.105,183.561,90.978,150.283,90.978z"/>
</g>
<g>
</g>
<g>
</g>
<g>
</g>
<g>
</g>
<g>
</g>
<g>
</g>
<g>
</g>
<g>
</g>
<g>
</g>
<g>
</g>
<g>
</g>
<g>
</g>
<g>
</g>
<g>
</g>
<g>
</g>
</symbol><symbol id="linkedin" viewBox="0 0 30 30">    <path d="M24,4H6C4.895,4,4,4.895,4,6v18c0,1.105,0.895,2,2,2h18c1.105,0,2-0.895,2-2V6C26,4.895,25.105,4,24,4z M10.954,22h-2.95 v-9.492h2.95V22z M9.449,11.151c-0.951,0-1.72-0.771-1.72-1.72c0-0.949,0.77-1.719,1.72-1.719c0.948,0,1.719,0.771,1.719,1.719 C11.168,10.38,10.397,11.151,9.449,11.151z M22.004,22h-2.948v-4.616c0-1.101-0.02-2.517-1.533-2.517 c-1.535,0-1.771,1.199-1.771,2.437V22h-2.948v-9.492h2.83v1.297h0.04c0.394-0.746,1.356-1.533,2.791-1.533 c2.987,0,3.539,1.966,3.539,4.522V22z"/></symbol><symbol id="pinterest" viewBox="0 0 24 24"><title>Pinterest icon</title><path d="M12.017 0C5.396 0 .029 5.367.029 11.987c0 5.079 3.158 9.417 7.618 11.162-.105-.949-.199-2.403.041-3.439.219-.937 1.406-5.957 1.406-5.957s-.359-.72-.359-1.781c0-1.663.967-2.911 2.168-2.911 1.024 0 1.518.769 1.518 1.688 0 1.029-.653 2.567-.992 3.992-.285 1.193.6 2.165 1.775 2.165 2.128 0 3.768-2.245 3.768-5.487 0-2.861-2.063-4.869-5.008-4.869-3.41 0-5.409 2.562-5.409 5.199 0 1.033.394 2.143.889 2.741.099.12.112.225.085.345-.09.375-.293 1.199-.334 1.363-.053.225-.172.271-.401.165-1.495-.69-2.433-2.878-2.433-4.646 0-3.776 2.748-7.252 7.92-7.252 4.158 0 7.392 2.967 7.392 6.923 0 4.135-2.607 7.462-6.233 7.462-1.214 0-2.354-.629-2.758-1.379l-.749 2.848c-.269 1.045-1.004 2.352-1.498 3.146 1.123.345 2.306.535 3.55.535 6.607 0 11.985-5.365 11.985-11.987C23.97 5.39 18.592.026 11.985.026L12.017 0z"/></symbol><symbol id="repeat" viewBox="0 0 50 50">
<path d="M38.243,28.251c-0.006-0.011-0.016-0.018-0.022-0.028c-0.027-0.049-0.066-0.087-0.101-0.13
	c-0.044-0.055-0.086-0.111-0.14-0.154c-0.039-0.032-0.084-0.052-0.128-0.078c-0.067-0.039-0.133-0.075-0.207-0.097
	c-0.019-0.006-0.033-0.02-0.052-0.025c-0.035-0.009-0.068,0-0.102-0.005c-0.068-0.01-0.134-0.015-0.203-0.01
	c-0.07,0.004-0.134,0.017-0.2,0.035c-0.027,0.008-0.055,0.004-0.082,0.015l-5.647,2.108c-0.518,0.193-0.78,0.769-0.587,1.286
	c0.193,0.518,0.77,0.779,1.287,0.587l3.688-1.376c-1.844,4.298-6.017,7.159-10.737,7.159c-5.338,0-10.006-3.686-11.35-8.964
	c-0.137-0.535-0.682-0.862-1.216-0.722c-0.536,0.136-0.859,0.681-0.723,1.216c1.57,6.164,7.034,10.47,13.288,10.47
	c5.497,0,10.359-3.306,12.533-8.279l1.793,3.484c0.177,0.345,0.527,0.542,0.89,0.542c0.154,0,0.311-0.035,0.457-0.111
	c0.491-0.252,0.685-0.855,0.432-1.347L38.243,28.251z"/>
<path d="M25.008,13.536c5.164,0,9.664,3.386,11.199,8.426c0.161,0.529,0.72,0.824,1.248,0.666c0.528-0.161,0.826-0.72,0.665-1.248
	c-1.793-5.888-7.063-9.844-13.112-9.844c-5.269,0-9.939,2.998-12.244,7.658l-1.637-3.438c-0.238-0.5-0.836-0.711-1.333-0.473
	c-0.499,0.237-0.71,0.834-0.473,1.332l2.622,5.504c0.004,0.009,0.011,0.015,0.015,0.023c0.012,0.023,0.029,0.042,0.043,0.065
	c0.049,0.079,0.105,0.15,0.172,0.211c0.025,0.023,0.049,0.043,0.076,0.064c0.087,0.065,0.181,0.119,0.284,0.153
	c0.008,0.003,0.014,0.01,0.023,0.012c0.002,0.001,0.005,0,0.007,0.001c0.091,0.027,0.186,0.042,0.283,0.042c0,0,0,0,0,0s0,0,0,0
	c0.001,0,0.002,0,0.003,0c0.087,0,0.176-0.012,0.263-0.036l5.698-1.572c0.532-0.146,0.845-0.697,0.698-1.229
	c-0.146-0.532-0.698-0.847-1.23-0.698l-3.78,1.043C16.45,16.148,20.471,13.536,25.008,13.536z"/>
</symbol><symbol id="search" viewBox="0 0 30.239 30.239">
<g>
	<path d="M20.194,3.46c-4.613-4.613-12.121-4.613-16.734,0c-4.612,4.614-4.612,12.121,0,16.735
		c4.108,4.107,10.506,4.547,15.116,1.34c0.097,0.459,0.319,0.897,0.676,1.254l6.718,6.718c0.979,0.977,2.561,0.977,3.535,0
		c0.978-0.978,0.978-2.56,0-3.535l-6.718-6.72c-0.355-0.354-0.794-0.577-1.253-0.674C24.743,13.967,24.303,7.57,20.194,3.46z
		 M18.073,18.074c-3.444,3.444-9.049,3.444-12.492,0c-3.442-3.444-3.442-9.048,0-12.492c3.443-3.443,9.048-3.443,12.492,0
		C21.517,9.026,21.517,14.63,18.073,18.074z"/>
</g>
<g>
</g>
<g>
</g>
<g>
</g>
<g>
</g>
<g>
</g>
<g>
</g>
<g>
</g>
<g>
</g>
<g>
</g>
<g>
</g>
<g>
</g>
<g>
</g>
<g>
</g>
<g>
</g>
<g>
</g>
</symbol><symbol id="twitter" viewBox="0 0 310 310">
<g id="XMLID_826_">
	<path id="XMLID_827_" d="M302.973,57.388c-4.87,2.16-9.877,3.983-14.993,5.463c6.057-6.85,10.675-14.91,13.494-23.73
		c0.632-1.977-0.023-4.141-1.648-5.434c-1.623-1.294-3.878-1.449-5.665-0.39c-10.865,6.444-22.587,11.075-34.878,13.783
		c-12.381-12.098-29.197-18.983-46.581-18.983c-36.695,0-66.549,29.853-66.549,66.547c0,2.89,0.183,5.764,0.545,8.598
		C101.163,99.244,58.83,76.863,29.76,41.204c-1.036-1.271-2.632-1.956-4.266-1.825c-1.635,0.128-3.104,1.05-3.93,2.467
		c-5.896,10.117-9.013,21.688-9.013,33.461c0,16.035,5.725,31.249,15.838,43.137c-3.075-1.065-6.059-2.396-8.907-3.977
		c-1.529-0.851-3.395-0.838-4.914,0.033c-1.52,0.871-2.473,2.473-2.513,4.224c-0.007,0.295-0.007,0.59-0.007,0.889
		c0,23.935,12.882,45.484,32.577,57.229c-1.692-0.169-3.383-0.414-5.063-0.735c-1.732-0.331-3.513,0.276-4.681,1.597
		c-1.17,1.32-1.557,3.16-1.018,4.84c7.29,22.76,26.059,39.501,48.749,44.605c-18.819,11.787-40.34,17.961-62.932,17.961
		c-4.714,0-9.455-0.277-14.095-0.826c-2.305-0.274-4.509,1.087-5.294,3.279c-0.785,2.193,0.047,4.638,2.008,5.895
		c29.023,18.609,62.582,28.445,97.047,28.445c67.754,0,110.139-31.95,133.764-58.753c29.46-33.421,46.356-77.658,46.356-121.367
		c0-1.826-0.028-3.67-0.084-5.508c11.623-8.757,21.63-19.355,29.773-31.536c1.237-1.85,1.103-4.295-0.33-5.998
		C307.394,57.037,305.009,56.486,302.973,57.388z"/>
</g>
<g>
</g>
<g>
</g>
<g>
</g>
<g>
</g>
<g>
</g>
<g>
</g>
<g>
</g>
<g>
</g>
<g>
</g>
<g>
</g>
<g>
</g>
<g>
</g>
<g>
</g>
<g>
</g>
<g>
</g>
</symbol><symbol id="youtube" viewBox="0 0 511.627 511.627">
<g>
	<g>
		<path d="M459.954,264.376c-2.471-11.233-7.949-20.653-16.416-28.264c-8.474-7.611-18.227-12.085-29.27-13.418
			c-35.02-3.806-87.837-5.708-158.457-5.708c-70.618,0-123.341,1.903-158.174,5.708c-11.227,1.333-21.029,5.807-29.407,13.418
			c-8.376,7.614-13.896,17.035-16.562,28.264c-4.948,22.083-7.423,55.391-7.423,99.931c0,45.299,2.475,78.61,7.423,99.93
			c2.478,11.225,7.951,20.653,16.421,28.261c8.47,7.614,18.225,11.991,29.263,13.134c35.026,3.997,87.847,5.996,158.461,5.996
			c70.609,0,123.44-1.999,158.453-5.996c11.043-1.143,20.748-5.52,29.126-13.134c8.377-7.607,13.897-17.036,16.56-28.261
			c4.948-22.083,7.426-55.391,7.426-99.93C467.377,319.007,464.899,285.695,459.954,264.376z M165.025,293.218h-30.549v162.45
			h-28.549v-162.45h-29.98v-26.837h89.079V293.218z M242.11,455.668H216.7v-15.421c-10.278,11.615-19.989,17.419-29.125,17.419
			c-8.754,0-14.275-3.524-16.556-10.564c-1.521-4.568-2.286-11.519-2.286-20.844V314.627h25.41v103.924
			c0,6.088,0.096,9.421,0.288,9.993c0.571,3.997,2.568,5.995,5.996,5.995c5.138,0,10.566-3.997,16.274-11.991V314.627h25.41V455.668
			z M339.183,413.411c0,13.894-0.855,23.417-2.56,28.558c-3.244,10.462-9.996,15.697-20.273,15.697
			c-9.137,0-17.986-5.235-26.556-15.697v13.702h-25.406v-189.29h25.406v61.955c8.189-10.273,17.036-15.413,26.556-15.413
			c10.277,0,17.029,5.331,20.273,15.988c1.704,4.948,2.56,14.369,2.56,28.264V413.411z M435.685,390.003h-51.104v24.839
			c0,13.134,4.374,19.697,13.131,19.697c6.279,0,10.089-3.422,11.42-10.28c0.376-1.902,0.571-7.706,0.571-17.412h25.981v3.71
			c0,9.329-0.195,14.846-0.572,16.563c-0.567,5.133-2.56,10.273-5.995,15.413c-6.852,10.089-17.139,15.133-30.841,15.133
			c-13.127,0-23.407-4.855-30.833-14.558c-5.517-7.043-8.275-18.083-8.275-33.12v-49.396c0-15.036,2.662-26.076,7.987-33.119
			c7.427-9.705,17.61-14.558,30.557-14.558c12.755,0,22.85,4.853,30.263,14.558c5.146,7.043,7.71,18.083,7.71,33.119V390.003
			L435.685,390.003z"/>
		<path d="M302.634,336.043c-4.38,0-8.658,2.101-12.847,6.283v85.934c4.188,4.186,8.467,6.279,12.847,6.279
			c7.419,0,11.14-6.372,11.14-19.13v-60.236C313.773,342.418,310.061,336.043,302.634,336.043z"/>
		<path d="M397.428,336.043c-8.565,0-12.847,6.475-12.847,19.41v13.134h25.693v-13.134
			C410.274,342.511,405.99,336.043,397.428,336.043z"/>
		<path d="M148.473,113.917v77.375h28.549v-77.375L211.563,0h-29.121l-19.41,75.089L142.759,0h-30.262
			c5.33,15.99,11.516,33.785,18.559,53.391C140.003,79.656,145.805,99.835,148.473,113.917z"/>
		<path d="M249.82,193.291c13.134,0,23.219-4.854,30.262-14.561c5.332-7.043,7.994-18.274,7.994-33.689V95.075
			c0-15.225-2.669-26.363-7.994-33.406c-7.043-9.707-17.128-14.561-30.262-14.561c-12.756,0-22.75,4.854-29.98,14.561
			c-5.327,7.043-7.992,18.181-7.992,33.406v49.965c0,15.225,2.662,26.457,7.992,33.689
			C227.073,188.437,237.063,193.291,249.82,193.291z M237.541,89.935c0-13.134,4.093-19.701,12.279-19.701
			s12.275,6.567,12.275,19.701v59.955c0,13.328-4.089,19.985-12.275,19.985s-12.279-6.661-12.279-19.985V89.935z"/>
		<path d="M328.328,193.291c9.523,0,19.328-5.901,29.413-17.705v15.703h25.981V48.822h-25.981v108.777
			c-5.712,8.186-11.133,12.275-16.279,12.275c-3.429,0-5.428-2.093-5.996-6.28c-0.191-0.381-0.287-3.715-0.287-9.994V48.822h-25.981
			v112.492c0,9.705,0.767,16.84,2.286,21.411C313.961,189.768,319.574,193.291,328.328,193.291z"/>
	</g>
</g>
<g>
</g>
<g>
</g>
<g>
</g>
<g>
</g>
<g>
</g>
<g>
</g>
<g>
</g>
<g>
</g>
<g>
</g>
<g>
</g>
<g>
</g>
<g>
</g>
<g>
</g>
<g>
</g>
<g>
</g>
</symbol></svg>